<?xml version="1.0" encoding="UTF-8"?>
<svg version="1.1" xmlns="http://www.w3.org/2000/svg" width="456" height="456">
<path d="M0 0 C0.72509766 -0.02900391 1.45019531 -0.05800781 2.19726562 -0.08789062 C5.59272911 -0.12827583 7.73936976 0.00146223 10.5625 1.9609375 C12.43141547 4.66547382 13.40495994 7.1102377 14.375 10.25 C14.86033203 11.77947266 14.86033203 11.77947266 15.35546875 13.33984375 C16.90124182 18.86253532 17.28420487 23.60691266 17.1875 29.3125 C18.321875 29.27125 19.45625 29.23 20.625 29.1875 C25.35240826 29.1875 29.62799096 30.14298988 34.1875 31.3125 C34.96222656 31.50328125 35.73695313 31.6940625 36.53515625 31.890625 C38.42132399 32.35634543 40.30472494 32.83324817 42.1875 33.3125 C42.34025391 32.23935547 42.34025391 32.23935547 42.49609375 31.14453125 C44.64239429 22.35318724 51.66567063 15.22449598 58.1875 9.3125 C64.02550028 10.9687536 69.72612656 12.639913 75.1875 15.3125 C76.76752733 18.47255467 76.37201666 21.84586451 76.375 25.3125 C76.38724609 26.03050781 76.39949219 26.74851562 76.41210938 27.48828125 C76.42822942 33.538672 75.42512032 38.12439842 74.1875 44.3125 C80.7875 47.9425 87.3875 51.5725 94.1875 55.3125 C96.4975 53.3325 98.8075 51.3525 101.1875 49.3125 C113.82348614 39.15858257 113.82348614 39.15858257 118.52734375 39.46484375 C124.06866833 41.23058154 128.3615174 45.02499153 132.1875 49.3125 C134.22118856 54.9484135 129.90250655 61.49513272 127.625 66.625 C127.2964502 67.31924072 126.96790039 68.01348145 126.62939453 68.72875977 C124.97449984 72.24487701 124.1875 74.3535788 124.1875 78.3125 C126.25127327 80.82514931 126.25127327 80.82514931 128.9375 83.25 C132.31302856 86.44293418 135.36057954 89.62033053 138.1875 93.3125 C140.85831051 92.25108732 143.51876998 91.17313216 146.16796875 90.05859375 C161.05595012 83.98371707 161.05595012 83.98371707 166.1875 85.3125 C171.18483915 89.54554022 174.78719304 94.87796068 176.1875 101.3125 C175.38671875 103.515625 175.38671875 103.515625 173.875 105.5625 C173.31683594 106.32046875 172.75867188 107.0784375 172.18359375 107.859375 C162.64253356 119.58498322 162.64253356 119.58498322 159.1875 121.3125 C159.79842567 126.24839156 161.97588756 130.15994085 164.25 134.5 C168.1875 142.05865385 168.1875 142.05865385 168.1875 144.3125 C169.33412109 144.07853516 169.33412109 144.07853516 170.50390625 143.83984375 C178.99465197 142.29700067 187.67603591 141.45661685 196.1875 143.3125 C198.8775385 145.88733343 199.84643583 148.71805213 200.875 152.25 C201.12636719 153.08402344 201.37773437 153.91804687 201.63671875 154.77734375 C202.22956484 157.5061176 202.5970179 159.53935161 202.1875 162.3125 C196.17877039 168.93590132 187.07471555 174.8390524 178.1875 176.3125 C178.4040625 177.27929688 178.620625 178.24609375 178.84375 179.2421875 C180.45445401 186.68319979 181.67419389 193.65157758 181.1875 201.3125 C181.80496094 201.34988281 182.42242187 201.38726562 183.05859375 201.42578125 C191.41132244 202.07416658 202.95843792 204.08343792 209.1875 210.3125 C209.26075168 213.17517567 209.27988205 216.013219 209.25 218.875 C209.24548828 219.68130859 209.24097656 220.48761719 209.23632812 221.31835938 C209.22450518 223.31643756 209.20656914 225.31447783 209.1875 227.3125 C200.16303556 232.36380421 190.67465185 236.02753308 180.1875 235.3125 C180.1875 236.9625 180.1875 238.6125 180.1875 240.3125 C177.36490477 239.7058573 175.11370019 238.85768503 172.61328125 237.421875 C171.9495752 237.04417969 171.28586914 236.66648438 170.60205078 236.27734375 C169.90837402 235.87644531 169.21469727 235.47554687 168.5 235.0625 C167.06648796 234.24464844 165.63289468 233.42693923 164.19921875 232.609375 C163.51005371 232.21427734 162.82088867 231.81917969 162.11083984 231.41210938 C159.68824388 230.02706593 157.25282619 228.66602513 154.8125 227.3125 C154.14476562 226.94125 153.47703125 226.57 152.7890625 226.1875 C151.60130218 225.53857729 150.39807846 224.91778923 149.1875 224.3125 C148.84033203 221.87011719 148.84033203 221.87011719 148.6953125 218.609375 C148.63255127 217.41183594 148.56979004 216.21429688 148.50512695 214.98046875 C148.44156006 213.68753906 148.37799316 212.39460937 148.3125 211.0625 C146.34356385 177.21982187 137.05590314 145.05681307 114.96484375 118.65625 C113.1875 116.3125 113.1875 116.3125 113.1875 114.3125 C112.5275 114.3125 111.8675 114.3125 111.1875 114.3125 C109.77734375 112.87890625 109.77734375 112.87890625 108.125 110.875 C89.43698563 89.09142496 63.081091 73.26262723 35.1875 66.3125 C34.5270166 66.13203125 33.8665332 65.9515625 33.18603516 65.765625 C-4.5204613 55.70376072 -46.14217779 62.59448456 -79.9765625 81.24902344 C-88.84414036 86.38561508 -96.98698846 92.72326635 -104.8125 99.3125 C-105.64523438 100.00988281 -106.47796875 100.70726563 -107.3359375 101.42578125 C-113.59426759 106.84645793 -118.80213737 112.73210935 -123.8125 119.3125 C-124.2146875 119.83440918 -124.616875 120.35631836 -125.03125 120.89404297 C-140.20623943 140.72230065 -150.95900379 164.55267952 -154.8125 189.3125 C-158.75467823 188.63614589 -161.91729551 186.68956098 -165.3125 184.6875 C-166.55441566 183.95787044 -167.79660872 183.22871284 -169.0390625 182.5 C-169.66458008 182.13261719 -170.29009766 181.76523438 -170.93457031 181.38671875 C-172.73504039 180.35680867 -174.55558575 179.38904451 -176.3984375 178.4375 C-177.48382813 177.86 -178.56921875 177.2825 -179.6875 176.6875 C-180.67492187 176.17960938 -181.66234375 175.67171875 -182.6796875 175.1484375 C-184.8125 173.3125 -184.8125 173.3125 -185.1328125 170.1015625 C-185.02710938 169.18117187 -184.92140625 168.26078125 -184.8125 167.3125 C-185.53824219 167.21195313 -186.26398438 167.11140625 -187.01171875 167.0078125 C-194.98982227 165.02719545 -201.88526416 157.75959663 -207.8125 152.3125 C-206.6488035 146.39818367 -205.23880692 140.84447978 -202.8125 135.3125 C-199.15968038 132.87728692 -196.40994751 133.00774483 -192.1875 133.0625 C-191.47126465 133.06709229 -190.7550293 133.07168457 -190.01708984 133.07641602 C-184.0724432 133.17798217 -178.22370956 133.60689522 -172.8125 136.3125 C-172.56757813 135.47074219 -172.32265625 134.62898437 -172.0703125 133.76171875 C-170.42112817 129.23926606 -168.04244759 125.36371099 -165.55859375 121.25976562 C-163.33653717 117.54991964 -163.33653717 117.54991964 -162.8125 113.3125 C-164.45889965 111.95422029 -166.12545807 110.61995749 -167.8125 109.3125 C-167.8125 108.6525 -167.8125 107.9925 -167.8125 107.3125 C-168.4725 107.3125 -169.1325 107.3125 -169.8125 107.3125 C-171.7578125 104.8984375 -171.7578125 104.8984375 -173.9375 101.6875 C-174.66195312 100.64335938 -175.38640625 99.59921875 -176.1328125 98.5234375 C-178.00482092 94.94485397 -178.45715633 93.27842573 -177.8125 89.3125 C-175.41714194 84.60672565 -171.92714369 78.43723244 -166.703125 76.55078125 C-164.12544466 76.72036548 -162.22106295 77.35557469 -159.8125 78.3125 C-158.63300781 78.76753906 -157.45351562 79.22257812 -156.23828125 79.69140625 C-151.55656507 81.57949587 -147.02377775 83.5049815 -142.8125 86.3125 C-139.52993514 85.98988228 -137.90363534 84.76594556 -135.6484375 82.44140625 C-134.80152344 81.57999023 -134.80152344 81.57999023 -133.9375 80.70117188 C-133.36 80.09853516 -132.7825 79.49589844 -132.1875 78.875 C-131.60226563 78.27623047 -131.01703125 77.67746094 -130.4140625 77.06054688 C-129.32905894 75.94941364 -128.24716672 74.83522754 -127.16943359 73.71704102 C-126.06208606 72.57084268 -124.93944037 71.43944037 -123.8125 70.3125 C-124.22242187 69.52746094 -124.63234375 68.74242188 -125.0546875 67.93359375 C-130.78422237 56.76237147 -130.78422237 56.76237147 -131.8125 51.3125 C-132.05806641 50.25289062 -132.05806641 50.25289062 -132.30859375 49.171875 C-132.67822148 46.48865151 -132.6974754 44.88817467 -131.8125 42.3125 C-127.96862649 38.46862649 -122.49425596 33.61809245 -116.8125 33.3125 C-108.40196957 37.03409254 -101.97284902 43.67108251 -95.8125 50.3125 C-90.71367545 48.7844611 -86.15584341 46.60213144 -81.4375 44.1875 C-80.70144531 43.81496094 -79.96539062 43.44242188 -79.20703125 43.05859375 C-77.40699642 42.1468878 -75.60948598 41.23020068 -73.8125 40.3125 C-73.97363281 39.69503906 -74.13476562 39.07757813 -74.30078125 38.44140625 C-75.02092798 34.03806635 -74.99678843 29.70444805 -75 25.25 C-75.01224609 24.35216797 -75.02449219 23.45433594 -75.03710938 22.52929688 C-75.03904297 21.66240234 -75.04097656 20.79550781 -75.04296875 19.90234375 C-75.04707764 19.11722412 -75.05118652 18.33210449 -75.05541992 17.52319336 C-74.77869023 15.00481409 -74.18981819 13.43478275 -72.8125 11.3125 C-69.94921875 10.01171875 -69.94921875 10.01171875 -66.5 9 C-65.36949219 8.65324219 -64.23898438 8.30648438 -63.07421875 7.94921875 C-59.74631361 7.29957978 -57.96883379 7.1262269 -54.8125 8.3125 C-48.29956433 14.29837729 -44.41478315 22.37110306 -40.8125 30.3125 C-39.76191406 30.168125 -38.71132812 30.02375 -37.62890625 29.875 C-30.31031309 28.89744506 -23.21366009 28.04817285 -15.8125 28.3125 C-15.895 27.260625 -15.9775 26.20875 -16.0625 25.125 C-16.07731403 16.81433169 -12.6807471 8.54029322 -8.8125 1.3125 C-6.7707082 -0.7292918 -2.79114238 0.03662917 0 0 Z " fill="#B8B8B8" transform="translate(229.8125,15.6875)"/>
<path d="M0 0 C3.3152709 0.65972464 5.85038931 1.90069026 8.7734375 3.58203125 C10.1346875 4.36223633 10.1346875 4.36223633 11.5234375 5.15820312 C12.93496094 5.97708008 12.93496094 5.97708008 14.375 6.8125 C15.77492188 7.61397461 15.77492188 7.61397461 17.203125 8.43164062 C19.01236971 9.4733658 20.81286553 10.53046767 22.60327148 11.60424805 C25.15720835 13.13935227 25.15720835 13.13935227 28.62109375 14.6953125 C31.42126903 17.40812599 31.42200198 18.20217008 31.69921875 21.97265625 C31.71990744 24.0025025 31.71445644 26.03272731 31.6875 28.0625 C31.72105812 30.24623342 31.76281783 32.42985517 31.8125 34.61328125 C31.83570313 35.69689941 31.85890625 36.78051758 31.8828125 37.89697266 C33.29150938 75.19809226 52.13263614 110.89991937 78 137 C78.77601562 137.78890625 79.55203125 138.5778125 80.3515625 139.390625 C100.69848687 158.82858024 127.74280125 170.47468588 155 176 C155.78705322 176.17805176 156.57410645 176.35610352 157.38500977 176.53955078 C165.6720714 178.27627182 173.88614521 178.39700974 182.3125 178.375 C183.43359161 178.37468277 183.43359161 178.37468277 184.57733154 178.37435913 C197.38579421 178.33830254 209.5620134 177.23894893 222 174 C222.72767578 173.81276367 223.45535156 173.62552734 224.20507812 173.43261719 C261.95850869 163.37777069 295.10821572 138.54240546 314.78295898 104.73852539 C316.59072493 101.52705537 318.31387303 98.27669143 320 95 C320.46792969 94.10539062 320.93585938 93.21078125 321.41796875 92.2890625 C327.41613515 79.98214502 332.43617191 65.62764483 334 52 C336.67555475 50.94450237 337.70704731 50.87370205 340.39428711 52.03222656 C341.69765015 52.82838379 341.69765015 52.82838379 343.02734375 53.640625 C343.98447266 54.21683594 344.94160156 54.79304688 345.92773438 55.38671875 C347.41756836 56.30904297 347.41756836 56.30904297 348.9375 57.25 C349.92685547 57.84941406 350.91621094 58.44882812 351.93554688 59.06640625 C353.78585059 60.18878282 355.63312264 61.31618361 357.47631836 62.45019531 C359.22352979 63.52316602 360.99853451 64.55167701 362.79321289 65.54321289 C363.52145264 66.02395264 364.24969238 66.50469238 365 67 C365.1546875 67.81855469 365.309375 68.63710938 365.46875 69.48046875 C365.75419581 72.23278909 365.75419581 72.23278909 368.40625 73.73828125 C369.4271875 74.25777344 370.448125 74.77726562 371.5 75.3125 C385.68600901 83.05802702 385.68600901 83.05802702 388 90 C387.07421875 93.03125 387.07421875 93.03125 385.6875 96.5 C385.23761719 97.6446875 384.78773438 98.789375 384.32421875 99.96875 C383 103 383 103 381 106 C378.84863281 106.35644531 378.84863281 106.35644531 376.203125 106.328125 C375.2440625 106.32296875 374.285 106.3178125 373.296875 106.3125 C372.29140625 106.291875 371.2859375 106.27125 370.25 106.25 C369.26 106.24484375 368.27 106.2396875 367.25 106.234375 C362.30047876 106.18143894 357.9318183 105.82196972 353 105 C347.555 114.9 347.555 114.9 342 125 C343.98 127.31 345.96 129.62 348 132 C358.10807453 144.44372671 358.10807453 144.44372671 357.8046875 148.8125 C356.88000966 152.47530156 355.52416318 154.41680671 353.125 157.3125 C352.42632812 158.17488281 351.72765625 159.03726563 351.0078125 159.92578125 C349 162 349 162 346 163 C336.41848532 162.00070092 327.42940021 157.37080011 319 153 C318.73268066 153.59780273 318.46536133 154.19560547 318.18994141 154.81152344 C316.98110289 157.03475455 315.82828148 158.33135396 313.9609375 160.015625 C313.38085938 160.54414063 312.80078125 161.07265625 312.203125 161.6171875 C311.59984375 162.15601563 310.9965625 162.69484375 310.375 163.25 C309.76398438 163.80429687 309.15296875 164.35859375 308.5234375 164.9296875 C307.02043435 166.2917841 305.5108532 167.64661601 304 169 C305.06141268 171.67081051 306.13936784 174.33126998 307.25390625 176.98046875 C308.6049068 180.29142832 309.83260238 183.62006836 311 187 C311.47953125 188.36318359 311.47953125 188.36318359 311.96875 189.75390625 C312.6490348 192.61378774 312.86103737 194.17486656 312 197 C308.50136358 200.90077854 304.81011959 203.81409285 300 206 C294.1944484 206.0585106 290.66250517 203.82082275 286.3125 200.25 C285.75755859 199.81945312 285.20261719 199.38890625 284.63085938 198.9453125 C281.26469629 196.27159438 278.552207 193.45262066 276 190 C271.5048847 190.61530095 267.84535205 192.41869966 263.875 194.5 C257.3200188 197.89332707 257.3200188 197.89332707 254 199 C254.165 200.2375 254.33 201.475 254.5 202.75 C256.41297685 220.35493186 256.41297685 220.35493186 253 228 C250.18602175 230.0319885 247.32120567 231.05563161 244 232 C243.27554687 232.20882812 242.55109375 232.41765625 241.8046875 232.6328125 C239.75 233.0625 239.75 233.0625 236 233 C233.64463788 231.33401216 232.6352422 230.27641619 231 228 C230.42121094 227.22398437 229.84242188 226.44796875 229.24609375 225.6484375 C221 214.2519572 221 214.2519572 221 209 C219.78183594 209.2165625 218.56367188 209.433125 217.30859375 209.65625 C215.68494902 209.93780689 214.06124807 210.21903969 212.4375 210.5 C211.63763672 210.64308594 210.83777344 210.78617188 210.01367188 210.93359375 C205.26475402 211.74769395 200.81753923 212.15519589 196 212 C195.98582031 212.71542969 195.97164062 213.43085938 195.95703125 214.16796875 C195.51077522 223.49110149 193.22402535 232.16396197 188 240 C186.12060547 240.34057617 186.12060547 240.34057617 183.8671875 240.29296875 C183.06152344 240.28330078 182.25585938 240.27363281 181.42578125 240.26367188 C180.58402344 240.23853516 179.74226562 240.21339844 178.875 240.1875 C178.02550781 240.17396484 177.17601562 240.16042969 176.30078125 240.14648438 C174.20025163 240.11108219 172.10004707 240.05727401 170 240 C166.92607048 235.04684046 165.06459951 230.59997575 163.75 224.9375 C163.57726562 224.25623047 163.40453125 223.57496094 163.2265625 222.87304688 C162.25014607 218.83951709 161.81896836 215.14433152 162 211 C161.03513672 210.92652344 161.03513672 210.92652344 160.05078125 210.8515625 C152.63907948 210.23832612 145.33776934 209.20157431 138 208 C137.75507813 208.58265625 137.51015625 209.1653125 137.2578125 209.765625 C133.76462501 217.42654653 129.30475821 224.37317278 123 230 C119.86457183 231.02152368 117.95828156 230.28284359 115 229 C114.11441406 228.6803125 113.22882813 228.360625 112.31640625 228.03125 C105.46598639 225.46598639 105.46598639 225.46598639 104 224 C101.93697381 214.62260821 103.46668544 204.16599267 106 195 C105.15824219 194.75636719 104.31648437 194.51273438 103.44921875 194.26171875 C98.91385449 192.60268969 95.04000619 190.19098812 90.94726562 187.65820312 C89.33984005 186.69862404 87.67233886 185.84136303 86 185 C82.89823024 186.03392325 81.78863521 187.17260451 79.5859375 189.46875 C75.14507726 193.75647713 69.65112514 198.48838883 64 201 C59.5342595 200.63791293 57.13179082 198.83503422 53.75 196 C52.87859375 195.278125 52.0071875 194.55625 51.109375 193.8125 C50.04938355 192.90169253 48.98821863 191.98821863 48 191 C47.69865156 180.73262818 52.48580164 171.92280145 57 163 C56.37170288 162.37955811 56.37170288 162.37955811 55.73071289 161.74658203 C53.83870591 159.87533169 51.95056815 158.00022415 50.0625 156.125 C49.40314453 155.47402344 48.74378906 154.82304687 48.06445312 154.15234375 C47.43603516 153.52714844 46.80761719 152.90195312 46.16015625 152.2578125 C45.57886963 151.6817627 44.99758301 151.10571289 44.39868164 150.51220703 C43 149 43 149 42 147 C39.10311209 147.63369423 36.65961394 148.57541591 34 149.875 C27.92247912 152.62195894 21.15497049 155.11297503 14.4140625 154.9296875 C10.88964731 153.57238845 9.68727619 151.42891365 7.625 148.3125 C6.91601562 147.27738281 6.20703125 146.24226562 5.4765625 145.17578125 C3.72450533 141.4074678 3.74534478 139.92014682 5 136 C6.55859375 133.2265625 6.55859375 133.2265625 8.4375 130.625 C9.05496094 129.75101563 9.67242187 128.87703125 10.30859375 127.9765625 C10.86675781 127.32429688 11.42492188 126.67203125 12 126 C12.66 126 13.32 126 14 126 C14.268125 125.360625 14.53625 124.72125 14.8125 124.0625 C16 122 16 122 19 121 C19 120.34 19 119.68 19 119 C19.66 118.34 20.32 117.68 21 117 C20.43410156 115.90300781 19.86820313 114.80601562 19.28515625 113.67578125 C18.54395074 112.22151727 17.80308305 110.76708107 17.0625 109.3125 C16.68931641 108.59126953 16.31613281 107.87003906 15.93164062 107.12695312 C14.06034761 103.43494258 12.51730444 100.16306904 12 96 C10.92322998 96.24339111 10.92322998 96.24339111 9.82470703 96.49169922 C7.08115809 96.98539575 4.58811479 97.12923023 1.8046875 97.1328125 C0.36029297 97.13474609 0.36029297 97.13474609 -1.11328125 97.13671875 C-2.10714844 97.13285156 -3.10101563 97.12898438 -4.125 97.125 C-5.12660156 97.12886719 -6.12820312 97.13273437 -7.16015625 97.13671875 C-8.12050781 97.13542969 -9.08085938 97.13414062 -10.0703125 97.1328125 C-10.94445801 97.13168457 -11.81860352 97.13055664 -12.71923828 97.12939453 C-15 97 -15 97 -18 96 C-20.50005577 91.19989291 -22.90334695 85.47056281 -23 80 C-20.93301689 74.94916191 -17.11732749 72.69045887 -12.6875 69.875 C-11.71006836 69.23111328 -11.71006836 69.23111328 -10.71289062 68.57421875 C-6.8712651 66.0746626 -3.14675473 64.07337737 1 62 C-0.98 50.615 -0.98 50.615 -3 39 C-5.248125 38.608125 -7.49625 38.21625 -9.8125 37.8125 C-16.63156819 36.5222246 -22.99366224 34.59668052 -29 31 C-30.66413655 27.6717269 -29.81867406 24.00266027 -29.5625 20.375 C-29.51029297 19.57320312 -29.45808594 18.77140625 -29.40429688 17.9453125 C-29.27451629 15.96320897 -29.13790265 13.98155501 -29 12 C-19.68970565 7.56973916 -11.41041593 4.4962702 -1 5 C-0.67 3.35 -0.34 1.7 0 0 Z " fill="#B9B8B8" transform="translate(42,203)"/>
<path d="M0 0 C1.5696989 1.5696989 1.13499102 3.12440178 1.14526367 5.30444336 C1.15164352 6.21886703 1.15802338 7.13329071 1.16459656 8.07542419 C1.16570938 9.07018265 1.1668222 10.0649411 1.16796875 11.08984375 C1.17296135 12.61213341 1.17296135 12.61213341 1.17805481 14.16517639 C1.1831285 16.3164118 1.185463 18.4676551 1.18530273 20.61889648 C1.18748834 23.91989036 1.20563707 27.22054975 1.22460938 30.52148438 C1.22754331 32.60676968 1.2295281 34.69205659 1.23046875 36.77734375 C1.23765427 37.77007797 1.24483978 38.76281219 1.25224304 39.78562927 C1.24916641 40.70320511 1.24608978 41.62078094 1.24291992 42.56616211 C1.24434494 43.37588974 1.24576996 44.18561737 1.24723816 45.0198822 C1 47 1 47 -1 49 C-3.48519787 49.53400946 -5.93043248 49.97946471 -8.4375 50.375 C-15.2887389 51.55955283 -21.58758504 53.24730213 -28 56 C-28.680625 56.28488281 -29.36125 56.56976563 -30.0625 56.86328125 C-35.43975057 59.32424068 -39.9928394 62.81347631 -44.6796875 66.390625 C-47 68 -47 68 -49 68 C-49.99 69.98 -49.99 69.98 -51 72 C-51.66 72 -52.32 72 -53 72 C-53.226875 72.53625 -53.45375 73.0725 -53.6875 73.625 C-55.03580249 76.06478547 -56.68620683 77.97715767 -58.4921875 80.0859375 C-64.52204941 87.35983409 -64.52204941 87.35983409 -67 96 C-66.36835938 96.35078613 -65.73671875 96.70157227 -65.0859375 97.06298828 C-50.21866341 105.32942833 -35.46399477 113.75840387 -20.79101562 122.36572266 C-16.49340905 124.88218333 -12.18538364 127.38050429 -7.875 129.875 C-6.71266846 130.54801147 -6.71266846 130.54801147 -5.52685547 131.23461914 C-0.9454672 133.8841739 3.64853544 136.51051666 8.25 139.125 C13.75587392 142.26020009 19.1856393 145.50695347 24.60644531 148.78564453 C29.04193732 151.4564163 33.54796583 153.9554137 38.11328125 156.3984375 C41.69390892 158.3849833 45.18765478 160.50029387 48.6875 162.625 C53.69301563 165.66251363 58.69372051 168.50929738 64 171 C63.559587 175.39364396 60.62048544 177.87623948 57.625 180.8125 C57.08407715 181.34439941 56.5431543 181.87629883 55.98583984 182.42431641 C46.31572058 191.68810442 32.07736075 200.75350854 18.34375 201.35546875 C13.53279314 200.62580696 9.94391083 197.68163496 6 195 C3.7811287 193.71127523 1.55115237 192.44154823 -0.6875 191.1875 C-5.73615912 188.32795387 -10.72376571 185.37926575 -15.6875 182.375 C-20.80354739 179.28266837 -25.96886691 176.33290494 -31.234375 173.5 C-41.62363714 167.86514596 -51.77335477 161.79885498 -61.92114258 155.74389648 C-67.39341847 152.49138871 -72.92041941 149.37265866 -78.51977539 146.34423828 C-87.73724125 141.34853329 -96.77916999 136.01192039 -105.78759766 130.65039062 C-109.06272475 128.70411533 -112.34020858 126.79604576 -115.7109375 125.01953125 C-116.79632813 124.43558594 -117.88171875 123.85164063 -119 123.25 C-119.94875 122.76015625 -120.8975 122.2703125 -121.875 121.765625 C-124 120 -124 120 -124.9453125 117.45703125 C-125.02248566 112.57858508 -124.01053784 108.16522563 -122.875 103.4375 C-122.64272705 102.45313965 -122.4104541 101.4687793 -122.17114258 100.45458984 C-117.96490063 83.17158689 -110.28127924 64.98243061 -99 51 C-98.34 51 -97.68 51 -97 51 C-96.75121094 50.43539062 -96.50242187 49.87078125 -96.24609375 49.2890625 C-91.5794299 40.71644489 -82.58188509 33.09142905 -75 27 C-74.34 27 -73.68 27 -73 27 C-73 26.34 -73 25.68 -73 25 C-53.73346576 9.97792903 -24.67927487 -2.28349163 0 0 Z " fill="#030393" transform="translate(219,98)"/>
<path d="M0 0 C4.76881883 0.44915619 7.95346454 2.59050215 11.984375 5.06640625 C12.80615234 5.5564917 13.62792969 6.04657715 14.47460938 6.55151367 C17.11066988 8.12721335 19.73526541 9.72089765 22.359375 11.31640625 C24.99712238 12.90554491 27.63680229 14.49143752 30.27661133 16.07714844 C31.99855068 17.11171186 33.7197429 18.14751984 35.44018555 19.18457031 C40.3410292 22.13248963 45.27488846 24.96952489 50.3203125 27.6640625 C69.33667501 38.00329302 87.98004669 49.09817399 106.6796875 59.99609375 C107.69828857 60.58962646 108.71688965 61.18315918 109.76635742 61.79467773 C111.76660532 62.9640807 113.76422933 64.13798485 115.7590332 65.31665039 C120.48078463 68.09976917 125.21711516 70.79444337 130.08203125 73.3203125 C130.97414307 73.79629883 131.86625488 74.27228516 132.78540039 74.76269531 C134.45051074 75.64650044 136.13029523 76.50341645 137.82592773 77.32714844 C140.0102427 78.50370591 141.67541162 79.49304192 143.359375 81.31640625 C144.19387033 84.44109445 143.87697583 87.15258782 143.359375 90.31640625 C143.2572168 90.99566162 143.15505859 91.67491699 143.04980469 92.37475586 C142.68639901 94.40126812 142.23255819 96.38139476 141.734375 98.37890625 C141.55543701 99.10787109 141.37649902 99.83683594 141.19213867 100.58789062 C135.09094584 124.44713142 123.25362848 144.47429036 106.359375 162.31640625 C105.51632812 163.22390625 104.67328125 164.13140625 103.8046875 165.06640625 C82.28099966 187.52590661 51.97771897 199.48753751 21.359375 202.31640625 C20.369375 201.98640625 19.379375 201.65640625 18.359375 201.31640625 C18.359375 185.47640625 18.359375 169.63640625 18.359375 153.31640625 C25.949375 151.33640625 33.539375 149.35640625 41.359375 147.31640625 C48.35939782 144.51639712 53.72372935 142.12257837 59.671875 137.87890625 C60.34798828 137.41419922 61.02410156 136.94949219 61.72070312 136.47070312 C72.21474921 129.12998992 80.56836576 118.7229396 86.359375 107.31640625 C86.359375 106.65640625 86.359375 105.99640625 86.359375 105.31640625 C85.72773438 104.96562012 85.09609375 104.61483398 84.4453125 104.25341797 C71.76318845 97.20195598 59.1386372 90.07178909 46.62426758 82.72583008 C41.10714885 79.49122115 35.57457661 76.2870047 30.015625 73.125 C29.39327469 72.77078979 28.77092438 72.41657959 28.12971497 72.05163574 C25.10912728 70.33335893 22.08659395 68.61863086 19.0612793 66.90869141 C13.86739923 63.95840687 8.74057462 60.96061861 3.72265625 57.71875 C-0.69887434 54.8667445 -5.21351861 52.30015527 -9.85058594 49.81689453 C-14.70008271 47.208826 -19.47694702 44.47154503 -24.265625 41.75390625 C-31.0413777 37.91221623 -37.82408007 34.08534247 -44.640625 30.31640625 C-43.89956677 25.68250211 -42.60685208 23.78782214 -39.203125 20.50390625 C-38.40003906 19.71371094 -37.59695312 18.92351562 -36.76953125 18.109375 C-34.640625 16.31640625 -34.640625 16.31640625 -32.640625 16.31640625 C-32.310625 15.32640625 -31.980625 14.33640625 -31.640625 13.31640625 C-29.31131599 11.69499569 -27.02332699 10.23983796 -24.578125 8.81640625 C-23.93423828 8.42582031 -23.29035156 8.03523437 -22.62695312 7.6328125 C-15.3974577 3.35133664 -8.3572726 1.00138917 0 0 Z " fill="#040393" transform="translate(213.640625,159.68359375)"/>
<path d="M0 0 C32.33958639 1.85525186 61.48107011 14.75993084 85 37 C85.56783203 37.53415527 86.13566406 38.06831055 86.72070312 38.61865234 C88.18957276 40.03641219 89.6000607 41.51413629 91 43 C91 43.66 91 44.32 91 45 C91.66 45 92.32 45 93 45 C94.23339844 46.29418945 94.23339844 46.29418945 95.609375 48.11328125 C96.11388184 48.7786792 96.61838867 49.44407715 97.13818359 50.12963867 C97.67008301 50.84998291 98.20198242 51.57032715 98.75 52.3125 C99.56525146 53.4113855 99.56525146 53.4113855 100.39697266 54.5324707 C104.47711817 60.1149574 108.00530439 65.75804408 111 72 C111.51046875 73.03640625 112.0209375 74.0728125 112.546875 75.140625 C117.82016637 86.157105 121.11465507 96.74554095 123.25 108.75 C123.42547363 109.73274902 123.60094727 110.71549805 123.78173828 111.72802734 C124.70641684 117.23411025 125.18517752 122.4182205 125 128 C120.5889203 128.39525804 118.4814096 127.36180781 114.875 124.875 C110.41915248 121.82768787 105.82648654 119.23269766 101.08154297 116.67285156 C95.55233308 113.67125545 90.08823069 110.55711111 84.625 107.4375 C83.47644531 106.79103516 82.32789063 106.14457031 81.14453125 105.47851562 C80.03722656 104.84494141 78.92992187 104.21136719 77.7890625 103.55859375 C76.79600098 102.99454834 75.80293945 102.43050293 74.77978516 101.84936523 C70.1211257 98.75000239 66.85991262 95.19712125 64.1875 90.3125 C53.00084294 71.12724081 35.30062833 57.95677621 14 52 C10.49131223 51.28897264 7.03176738 50.7344347 3.4765625 50.32421875 C1 50 1 50 -1 49 C-1.0252689 42.18238106 -1.04283244 35.36477411 -1.05493164 28.54711914 C-1.05997333 26.22582549 -1.06680651 23.90453503 -1.07543945 21.58325195 C-1.08751225 18.25471205 -1.09322979 14.92621398 -1.09765625 11.59765625 C-1.10281754 10.55287613 -1.10797882 9.50809601 -1.11329651 8.43165588 C-1.11337204 7.47073532 -1.11344757 6.50981476 -1.11352539 5.51977539 C-1.115746 4.66928116 -1.11796661 3.81878693 -1.12025452 2.94252014 C-1 1 -1 1 0 0 Z " fill="#030393" transform="translate(233,97)"/>
<path d="M0 0 C3.48616154 0.67686029 6.17749011 2.06987575 9.26171875 3.80859375 C10.29031006 4.38609375 11.31890137 4.96359375 12.37866211 5.55859375 C13.47057861 6.17863281 14.56249512 6.79867187 15.6875 7.4375 C16.80713135 8.06914062 17.9267627 8.70078125 19.08032227 9.3515625 C26.92242387 13.78808961 34.73473513 18.27182965 42.45703125 22.9140625 C44.61964764 24.20921472 46.757021 25.38292891 49.01171875 26.5234375 C55.33688082 29.79474703 57.85489178 33.47505272 61.1796875 39.71484375 C71.60168378 58.52363962 88.96085102 70.34606566 109.375 76.375 C114.88819697 77.83880168 120.38293505 78.87658701 126 80 C126 95.51 126 111.02 126 127 C120.36754795 129.25298082 120.36754795 129.25298082 116.2265625 128.49609375 C114.87751831 128.25499878 114.87751831 128.25499878 113.5012207 128.0090332 C112.55206787 127.82042725 111.60291504 127.63182129 110.625 127.4375 C109.14616333 127.15169067 109.14616333 127.15169067 107.63745117 126.86010742 C82.18952114 121.73896839 57.24429185 109.75661206 39 91 C37.77603516 89.77216797 37.77603516 89.77216797 36.52734375 88.51953125 C14.80042293 65.80949184 -0.58929429 34.3002709 -0.0703125 2.45703125 C-0.04710938 1.64621094 -0.02390625 0.83539063 0 0 Z " fill="#050593" transform="translate(94,233)"/>
<path d="M0 0 C3.01322314 0.06599833 6.00617171 0.47706345 9 0.8125 C10.2684375 0.9372168 10.2684375 0.9372168 11.5625 1.06445312 C12.366875 1.15275391 13.17125 1.24105469 14 1.33203125 C15.11375 1.45155151 15.11375 1.45155151 16.25 1.57348633 C16.8275 1.71423584 17.405 1.85498535 18 2 C18.33 2.66 18.66 3.32 19 4 C13.39 3.67 7.78 3.34 2 3 C2.01160156 5.41054687 2.02320313 7.82109375 2.03515625 10.3046875 C2.0429824 12.67122262 2.04903886 15.03775624 2.05493164 17.40429688 C2.05992239 19.03353534 2.06671735 20.66276942 2.07543945 22.29199219 C2.12049453 30.93196627 2.10156149 39.41302461 1 48 C1.71285156 48.04898438 2.42570313 48.09796875 3.16015625 48.1484375 C11.94657226 48.83432193 11.94657226 48.83432193 15.875 50.0625 C18.79109511 50.93732853 20.98455674 51.18275414 24 51 C24 51.66 24 52.32 24 53 C25.65 53 27.3 53 29 53 C29 53.66 29 54.32 29 55 C29.99 55 30.98 55 32 55 C34 56.8125 34 56.8125 36 59 C36.5775 59.5775 37.155 60.155 37.75 60.75 C38.1625 61.1625 38.575 61.575 39 62 C35.59166782 60.67318497 32.29810216 59.20366475 29 57.625 C19.92016377 53.4889021 10.93959976 50.81472129 1 50 C0.34 49.67 -0.32 49.34 -1 49 C-1.0252689 42.18238106 -1.04283244 35.36477411 -1.05493164 28.54711914 C-1.05997333 26.22582549 -1.06680651 23.90453503 -1.07543945 21.58325195 C-1.08751225 18.25471205 -1.09322979 14.92621398 -1.09765625 11.59765625 C-1.10281754 10.55287613 -1.10797882 9.50809601 -1.11329651 8.43165588 C-1.11337204 7.47073532 -1.11344757 6.50981476 -1.11352539 5.51977539 C-1.115746 4.66928116 -1.11796661 3.81878693 -1.12025452 2.94252014 C-1 1 -1 1 0 0 Z " fill="#29277B" transform="translate(233,97)"/>
<path d="M0 0 C1.32 0.33 2.64 0.66 4 1 C3.34 1 2.68 1 2 1 C2 16.18 2 31.36 2 47 C12.90569419 46.02591169 12.90569419 46.02591169 17 43 C19.453125 42.62109375 19.453125 42.62109375 22.25 42.4375 C26.54291173 42.11823963 30.74761879 41.66148152 35 41 C34.505 41.99 34.505 41.99 34 43 C31.43156667 43.77264269 28.92548311 44.41986929 26.3125 45 C25.55243652 45.17297607 24.79237305 45.34595215 24.00927734 45.52416992 C5.12555664 49.70851888 5.12555664 49.70851888 0 48 C0 32.16 0 16.32 0 0 Z " fill="#373679" transform="translate(232,313)"/>
<path d="M0 0 C3.91114026 0.67400718 6.87119182 2.54256033 10.25 4.5625 C11.32765625 5.20316406 12.4053125 5.84382812 13.515625 6.50390625 C14.33546875 6.99761719 15.1553125 7.49132812 16 8 C12.86650268 9.04449911 12.01031744 8.93423645 9 8 C9 7.34 9 6.68 9 6 C7.68 6 6.36 6 5 6 C4.62433719 14.77937903 5.2240749 22.73664067 7.02075195 31.31225586 C8.30906783 37.65364119 8.30906783 37.65364119 7 41 C2.73334082 27.10893022 -0.41993685 14.67445985 0 0 Z " fill="#2C2B86" transform="translate(94,233)"/>
<path d="M0 0 C-0.99 0.495 -0.99 0.495 -2 1 C-2 1.66 -2 2.32 -2 3 C-2.54414551 3.13575439 -3.08829102 3.27150879 -3.64892578 3.41137695 C-6.14281864 4.03789926 -8.63386473 4.67510542 -11.125 5.3125 C-11.9809375 5.52583984 -12.836875 5.73917969 -13.71875 5.95898438 C-18.50037676 7.19117281 -22.59602291 8.71769576 -27 11 C-27.99 11 -28.98 11 -30 11 C-30 10.34 -30 9.68 -30 9 C-29.01 9 -28.02 9 -27 9 C-27 8.34 -27 7.68 -27 7 C-17.96819448 3.04858508 -10.05409638 -0.23938325 0 0 Z " fill="#34328E" transform="translate(216,144)"/>
<path d="M0 0 C6.41144414 0.49318801 6.41144414 0.49318801 9.25 2.9375 C9.8275 3.618125 10.405 4.29875 11 5 C11.99 5.66 12.98 6.32 14 7 C13.835 7.928125 13.67 8.85625 13.5 9.8125 C12.92251612 12.95621353 12.92251612 12.95621353 13 16 C13 16.66 13 17.32 13 18 C11.68 18 10.36 18 9 18 C8.938125 18.680625 8.87625 19.36125 8.8125 20.0625 C7.71461145 24.03178937 5.50976025 26.78639555 3 30 C2.34 29.67 1.68 29.34 1 29 C2.57263975 24.46353917 4.97744683 20.77141936 7.625 16.8125 C10.74109366 12.73184726 10.74109366 12.73184726 12 8 C10.04476509 6.7401537 8.03426607 5.56529334 6 4.4375 C3.98607506 3.31632188 1.98194822 2.17678175 0 1 C0 0.67 0 0.34 0 0 Z " fill="#29298F" transform="translate(288,257)"/>
<path d="M0 0 C11.68126718 0.72888038 11.68126718 0.72888038 15.9375 2.0625 C18.82906604 2.94767328 21.00399564 3.18157602 24 3 C24 3.66 24 4.32 24 5 C25.65 5 27.3 5 29 5 C29 5.66 29 6.32 29 7 C29.99 7 30.98 7 32 7 C34 8.8125 34 8.8125 36 11 C36.86625 11.86625 36.86625 11.86625 37.75 12.75 C38.1625 13.1625 38.575 13.575 39 14 C35.59166782 12.67318497 32.29810216 11.20366475 29 9.625 C21.26558711 6.10177688 13.25786724 3.15826397 4.75 2.375 C3.5125 2.25125 2.275 2.1275 1 2 C0.67 1.34 0.34 0.68 0 0 Z " fill="#464497" transform="translate(233,145)"/>
<path d="M0 0 C9.24444444 4.26666667 9.24444444 4.26666667 11.0625 8.4375 C11.371875 9.283125 11.68125 10.12875 12 11 C12.804375 11.78375 13.60875 12.5675 14.4375 13.375 C16.72537954 15.71868148 17.52849785 16.85249462 18.6875 19.75 C19.6170568 23.08431396 19.6170568 23.08431396 22 24 C22.72693904 25.97888961 23.39816251 27.97954558 24 30 C19.91089157 28.50658649 18.74864917 26.264446 16.75 22.5 C13.37483953 16.45947676 9.46407342 11.26723308 5 6 C3.99970334 4.79191224 2.9996532 3.58362026 2 2.375 C1.34 1.59125 0.68 0.8075 0 0 Z " fill="#3F3E9B" transform="translate(281,166)"/>
<path d="M0 0 C0.721875 0.29003906 1.44375 0.58007812 2.1875 0.87890625 C3.95472416 1.58334144 5.72514548 2.27986083 7.5 2.96484375 C18.20229601 7.12870579 18.20229601 7.12870579 21.3359375 10.390625 C23.30043654 12.29056304 25.39961904 13.69540372 27.6875 15.1875 C28.89986328 15.98220703 28.89986328 15.98220703 30.13671875 16.79296875 C30.75160156 17.19128906 31.36648437 17.58960938 32 18 C31.34 18.33 30.68 18.66 30 19 C27.78515625 17.77734375 27.78515625 17.77734375 25.0625 15.9375 C21.21872668 13.40684819 17.37069164 11.04579246 13.3125 8.875 C8.74139954 6.42525794 4.32879305 3.85863692 0 1 C0 0.67 0 0.34 0 0 Z " fill="#454398" transform="translate(200,206)"/>
<path d="M0 0 C0.66 0 1.32 0 2 0 C2.33 5.28 2.66 10.56 3 16 C-2.10829973 16 -2.93462253 15.77818087 -6.8125 13 C-7.60269531 12.443125 -8.39289063 11.88625 -9.20703125 11.3125 C-10.09455078 10.6628125 -10.09455078 10.6628125 -11 10 C-10.34 9.67 -9.68 9.34 -9 9 C-7.31791365 9.97383946 -5.65261839 10.97695052 -4 12 C-2.68 12.33 -1.36 12.66 0 13 C0 8.71 0 4.42 0 0 Z " fill="#4B499D" transform="translate(355,209)"/>
<path d="M0 0 C0 0.66 0 1.32 0 2 C-0.79921875 2.24234375 -1.5984375 2.4846875 -2.421875 2.734375 C-15.1098981 6.14661185 -15.1098981 6.14661185 -27.15234375 11.1796875 C-29 12 -29 12 -32 11 C-9.48510638 0 -9.48510638 0 0 0 Z " fill="#57529B" transform="translate(198,100)"/>
<path d="M0 0 C0.66 0.33 1.32 0.66 2 1 C0.576875 2.299375 0.576875 2.299375 -0.875 3.625 C-3.77204593 6.49471531 -5.04314133 8.98119358 -6 13 C-5.01 13.33 -4.02 13.66 -3 14 C-3 14.66 -3 15.32 -3 16 C-2.21625 16.268125 -1.4325 16.53625 -0.625 16.8125 C2 18 2 18 4 21 C-0.97209562 19.23570801 -5.43438061 16.6060834 -10 14 C-9.54261927 9.31808451 -7.80889606 7.36895826 -4.4375 4.1875 C-3.61121094 3.39730469 -2.78492188 2.60710937 -1.93359375 1.79296875 C-1.29550781 1.20128906 -0.65742188 0.60960937 0 0 Z " fill="#504E9D" transform="translate(179,176)"/>
<path d="M0 0 C1.31471568 0.28151087 2.62675767 0.57553339 3.9375 0.875 C4.66839844 1.03742188 5.39929688 1.19984375 6.15234375 1.3671875 C8 2 8 2 9 4 C12.02934491 4.65772428 12.02934491 4.65772428 15 5 C15 5.66 15 6.32 15 7 C16.98 7.66 18.96 8.32 21 9 C21 9.66 21 10.32 21 11 C22.45833358 12.62514468 22.45833358 12.62514468 24 14 C15.49870224 10.76797509 7.57351213 6.00137593 0 1 C0 0.67 0 0.34 0 0 Z " fill="#3F3C96" transform="translate(130,237)"/>
<path d="M0 0 C3.41021743 0.78697325 6.68885166 1.87119943 10 3 C10 3.66 10 4.32 10 5 C10.61875 5.12375 11.2375 5.2475 11.875 5.375 C14 6 14 6 16 8 C18.31648799 9.03842565 20.64903024 10.0421975 23 11 C23 11.66 23 12.32 23 13 C18.48666013 12.03397156 14.91730738 9.88894083 10.9375 7.625 C10.21755859 7.22539062 9.49761719 6.82578125 8.75585938 6.4140625 C8.06169922 6.0221875 7.36753906 5.6303125 6.65234375 5.2265625 C6.02320068 4.87158691 5.39405762 4.51661133 4.74584961 4.15087891 C2.91292377 2.94259861 1.49561102 1.60041003 0 0 Z " fill="#3C3B92" transform="translate(208,282)"/>
<path d="M0 0 C3.81936528 1.55603771 6.26044438 3.95604931 9 7 C9 7.66 9 8.32 9 9 C9.99 9 10.98 9 12 9 C13.54779543 11.26216255 14.77612283 13.55224566 16 16 C11.93651061 14.33318032 8.94211118 11.49114746 5.75 8.5625 C5.19570312 8.07201172 4.64140625 7.58152344 4.0703125 7.07617188 C2.65197277 5.78184954 1.31884311 4.39556825 0 3 C0 2.01 0 1.02 0 0 Z " fill="#28278C" transform="translate(130,318)"/>
<path d="M0 0 C4.96639951 -0.39323398 7.3814778 0.436823 11.375 3.375 C12.24898437 4.00148438 13.12296875 4.62796875 14.0234375 5.2734375 C15.00183594 6.12808594 15.00183594 6.12808594 16 7 C16 7.66 16 8.32 16 9 C16.99 9.33 17.98 9.66 19 10 C18.01 10.495 18.01 10.495 17 11 C15.21240234 10.21142578 15.21240234 10.21142578 13.0859375 8.9453125 C12.32539063 8.49542969 11.56484375 8.04554688 10.78125 7.58203125 C9.9871875 7.10121094 9.193125 6.62039063 8.375 6.125 C7.57320312 5.65191406 6.77140625 5.17882812 5.9453125 4.69140625 C1.61571608 2.10690226 1.61571608 2.10690226 0 1 C0 0.67 0 0.34 0 0 Z " fill="#373691" transform="translate(187,270)"/>
<path d="M0 0 C3.48670834 1.1094072 6.77484237 2.26337666 10 4 C9.65120368 7.25543229 8.97866739 8.01873107 6.4375 10.25 C5.633125 10.8275 4.82875 11.405 4 12 C3.67 9.69 3.34 7.38 3 5 C3.66 4.67 4.32 4.34 5 4 C4.175 3.525625 3.35 3.05125 2.5 2.5625 C1.675 2.046875 0.85 1.53125 0 1 C0 0.67 0 0.34 0 0 Z " fill="#2F2E8E" transform="translate(273,265)"/>
<path d="M0 0 C0.33 0 0.66 0 1 0 C1.25112108 6.40358744 1.25112108 6.40358744 0 9.375 C-1.4645887 13.21954534 -1.1595501 16.93147255 -1 21 C-1.66 21 -2.32 21 -3 21 C-4.1211548 16.13418816 -3.74057548 12.53360081 -2.625 7.6875 C-2.34914063 6.45386719 -2.07328125 5.22023437 -1.7890625 3.94921875 C-1 1 -1 1 0 0 Z " fill="#42408A" transform="translate(98,197)"/>
<path d="M0 0 C3.5589345 0.68991165 6.39240746 2.14115347 9.5625 3.875 C10.51253906 4.38804687 11.46257812 4.90109375 12.44140625 5.4296875 C14.66806218 6.79627633 16.27616652 8.06141286 18 10 C16.02 10 14.04 10 12 10 C11.67 8.68 11.34 7.36 11 6 C9.35 6 7.7 6 6 6 C6 5.34 6 4.68 6 4 C3.03 3.505 3.03 3.505 0 3 C0 2.01 0 1.02 0 0 Z " fill="#3B3B90" transform="translate(240,246)"/>
<path d="M0 0 C3.89169629 0.68010226 6.87181916 2.50899487 10.25 4.5 C11.32765625 5.1290625 12.4053125 5.758125 13.515625 6.40625 C14.74539063 7.19515625 14.74539063 7.19515625 16 8 C16 8.33 16 8.66 16 9 C9.62807469 8.36280747 5.29046516 6.52697677 0 3 C0 2.01 0 1.02 0 0 Z " fill="#2D2B8A" transform="translate(263,188)"/>
<path d="M0 0 C3.0148635 2.90621977 5.65605355 5.96433449 8.25 9.25 C8.95640625 10.14203125 9.6628125 11.0340625 10.390625 11.953125 C10.92171875 12.62859375 11.4528125 13.3040625 12 14 C11.67 14.66 11.34 15.32 11 16 C1.6968427 8.80249559 1.6968427 8.80249559 0.4375 3.5 C0.293125 2.345 0.14875 1.19 0 0 Z " fill="#424091" transform="translate(154,273)"/>
<path d="M0 0 C3.40312738 1.05875074 6.01353231 2.00902154 9 4 C10.03125 4.33 11.0625 4.66 12.125 5 C15 6 15 6 16 8 C18.52733235 8.65555119 18.52733235 8.65555119 21 9 C21 9.99 21 10.98 21 12 C15.84313143 10.53005148 11.65471168 8.21589873 7.125 5.4375 C6.43664062 5.02564453 5.74828125 4.61378906 5.0390625 4.18945312 C3.33910553 3.15902286 1.66662278 2.08351684 0 1 C0 0.67 0 0.34 0 0 Z " fill="#4A479C" transform="translate(97,218)"/>
<path d="M0 0 C3.91114026 0.67400718 6.87119182 2.54256033 10.25 4.5625 C11.32765625 5.20316406 12.4053125 5.84382812 13.515625 6.50390625 C14.33546875 6.99761719 15.1553125 7.49132812 16 8 C12.86650268 9.04449911 12.01031744 8.93423645 9 8 C9 7.34 9 6.68 9 6 C7.35 5.67 5.7 5.34 4 5 C3.67 4.01 3.34 3.02 3 2 C2.34 2 1.68 2 1 2 C0.67 2.66 0.34 3.32 0 4 C0 2.68 0 1.36 0 0 Z " fill="#4B489D" transform="translate(94,233)"/>
<path d="M0 0 C6.41144414 0.49318801 6.41144414 0.49318801 9.25 2.9375 C9.8275 3.618125 10.405 4.29875 11 5 C11.99 5.66 12.98 6.32 14 7 C13.56802365 11.7517398 12.67230705 13.92000054 9 17 C9.309375 16.2575 9.61875 15.515 9.9375 14.75 C10.81160747 12.4876042 11.44256673 10.35025921 12 8 C11.13375 7.50628906 10.2675 7.01257813 9.375 6.50390625 C8.26125 5.86324219 7.1475 5.22257812 6 4.5625 C4.88625 3.92441406 3.7725 3.28632813 2.625 2.62890625 C1.75875 2.09136719 0.8925 1.55382812 0 1 C0 0.67 0 0.34 0 0 Z " fill="#4F4D9A" transform="translate(288,257)"/>
<path d="M0 0 C0.66 0 1.32 0 2 0 C2 5.28 2 10.56 2 16 C1.34 16.33 0.68 16.66 0 17 C-1.54897985 13.9020403 -0.83239539 10.73783448 -0.5625 7.375 C-0.51029297 6.66859375 -0.45808594 5.9621875 -0.40429688 5.234375 C-0.27458793 3.48920013 -0.13795046 1.74454275 0 0 Z " fill="#ADABAC" transform="translate(13,217)"/>
<path d="M0 0 C1.46184058 0.22860058 2.91955419 0.48370392 4.375 0.75 C5.59316406 0.95882812 5.59316406 0.95882812 6.8359375 1.171875 C9 2 9 2 10.2890625 4.078125 C10.64097656 5.02945313 10.64097656 5.02945313 11 6 C11.99 6 12.98 6 14 6 C14 6.66 14 7.32 14 8 C14.99 8.33 15.98 8.66 17 9 C16.01 9.495 16.01 9.495 15 10 C12.37756211 8.61511707 9.8901582 7.18421246 7.375 5.625 C6.66859375 5.19960937 5.9621875 4.77421875 5.234375 4.3359375 C3.46808541 3.25843265 1.73117753 2.1330578 0 1 C0 0.67 0 0.34 0 0 Z " fill="#47459C" transform="translate(316,202)"/>
<path d="M0 0 C1.65 0.33 3.3 0.66 5 1 C0.76646153 5.93912821 -4.12975632 8.32134512 -10 11 C-9.75 9.09375 -9.75 9.09375 -9 7 C-6.97740664 5.98870332 -4.99123058 5.49761973 -2.8125 4.90625 C-0.78235651 4.1521868 -0.78235651 4.1521868 -0.25 1.90625 C-0.1675 1.2771875 -0.085 0.648125 0 0 Z " fill="#323189" transform="translate(266,282)"/>
<path d="M0 0 C0.66 0 1.32 0 2 0 C2 0.66 2 1.32 2 2 C2.66 2 3.32 2 4 2 C4.27263672 2.99580078 4.27263672 2.99580078 4.55078125 4.01171875 C5.9185444 8.81642521 7.40319842 12.71527739 10 17 C9.67 17.99 9.34 18.98 9 20 C7.68253667 17.41909233 6.37090383 14.83549542 5.0625 12.25 C4.68931641 11.52039063 4.31613281 10.79078125 3.93164062 10.0390625 C3.57392578 9.33007812 3.21621094 8.62109375 2.84765625 7.890625 C2.51773682 7.24125977 2.18781738 6.59189453 1.84790039 5.92285156 C0.98547884 3.96706921 0.45625821 2.08459306 0 0 Z " fill="#4C4BA1" transform="translate(102,275)"/>
<path d="M0 0 C3.8373228 2.49872182 7.45960866 5.0843836 11 8 C10.67 8.66 10.34 9.32 10 10 C8.9275 9.360625 7.855 8.72125 6.75 8.0625 C4.19177818 6.59398727 1.94659114 5.47145458 -1 5 C-0.67 3.35 -0.34 1.7 0 0 Z " fill="#3B3B98" transform="translate(305,124)"/>
<path d="M0 0 C4.46182436 1.31074365 7.99618757 3.07066011 11.875 5.625 C12.84179688 6.25664062 13.80859375 6.88828125 14.8046875 7.5390625 C15.52914062 8.02117187 16.25359375 8.50328125 17 9 C15.1875 9.6875 15.1875 9.6875 13 10 C11.57421875 8.73046875 11.57421875 8.73046875 10 7 C8.30015988 6.04969568 6.567809 5.15596017 4.8125 4.3125 C3.91144531 3.87550781 3.01039063 3.43851563 2.08203125 2.98828125 C1.39496094 2.66214844 0.70789063 2.33601562 0 2 C0 1.34 0 0.68 0 0 Z " fill="#5555A2" transform="translate(206,226)"/>
<path d="M0 0 C0.33 0.66 0.66 1.32 1 2 C0.67 2.66 0.34 3.32 0 4 C-0.66 4 -1.32 4 -2 4 C-2 6.64 -2 9.28 -2 12 C-2.99 11.67 -3.98 11.34 -5 11 C-4.34 11 -3.68 11 -3 11 C-3.33 10.34 -3.66 9.68 -4 9 C-4.45375 9.825 -4.9075 10.65 -5.375 11.5 C-5.91125 12.325 -6.4475 13.15 -7 14 C-7.66 14 -8.32 14 -9 14 C-7.54997977 9.89160936 -5.6020866 6.49655387 -3 3 C-2.34 3 -1.68 3 -1 3 C-0.67 2.01 -0.34 1.02 0 0 Z " fill="#42409B" transform="translate(123,146)"/>
<path d="M0 0 C0.33 1.32 0.66 2.64 1 4 C0.01 4 -0.98 4 -2 4 C-2.185625 5.2065625 -2.185625 5.2065625 -2.375 6.4375 C-2.58125 7.283125 -2.7875 8.12875 -3 9 C-3.99 9.495 -3.99 9.495 -5 10 C-5.33 9.34 -5.66 8.68 -6 8 C-7.98 8.99 -7.98 8.99 -10 10 C-3.84965831 2.51708428 -3.84965831 2.51708428 0 0 Z " fill="#3B3A98" transform="translate(286,287)"/>
<path d="M0 0 C4.12172083 3.76843047 7.63068221 7.88904305 10 13 C9.67 13.66 9.34 14.32 9 15 C6 14 6 14 4.90234375 12.109375 C4.42474609 10.94148437 4.42474609 10.94148437 3.9375 9.75 C3.60105469 8.94175781 3.26460938 8.13351563 2.91796875 7.30078125 C2.61503906 6.54152344 2.31210937 5.78226563 2 5 C1.5875 3.989375 1.175 2.97875 0.75 1.9375 C0.5025 1.298125 0.255 0.65875 0 0 Z " fill="#42408D" transform="translate(330,149)"/>
<path d="M0 0 C3.69876091 1.37287342 6.9514476 3.06355453 10.3125 5.125 C11.19550781 5.66382813 12.07851563 6.20265625 12.98828125 6.7578125 C13.65214844 7.16773438 14.31601562 7.57765625 15 8 C11.2578125 9.09375 11.2578125 9.09375 8.9375 8.25 C6.97429781 6.98341794 5.58166019 5.71346521 4 4 C3.278125 3.278125 2.55625 2.55625 1.8125 1.8125 C1.214375 1.214375 0.61625 0.61625 0 0 Z " fill="#434297" transform="translate(258,256)"/>
<path d="M0 0 C1.62566606 0.47690204 3.25051311 0.95659666 4.875 1.4375 C5.77992188 1.70433594 6.68484375 1.97117187 7.6171875 2.24609375 C10 3 10 3 12 4 C12 4.99 12 5.98 12 7 C12.66 7.33 13.32 7.66 14 8 C10.45265111 7.33694413 7.81990835 5.86707876 4.75 4 C3.85796875 3.46375 2.9659375 2.9275 2.046875 2.375 C1.37140625 1.92125 0.6959375 1.4675 0 1 C0 0.67 0 0.34 0 0 Z " fill="#453F95" transform="translate(163,256)"/>
<path d="M0 0 C1.093125 0.185625 2.18625 0.37125 3.3125 0.5625 C6.93624133 1.2578068 6.93624133 1.2578068 10 0 C9.67 1.65 9.34 3.3 9 5 C7.68 4.34 6.36 3.68 5 3 C5 3.66 5 4.32 5 5 C2.525 4.01 2.525 4.01 0 3 C0 2.01 0 1.02 0 0 Z " fill="#17168B" transform="translate(118,228)"/>
<path d="M0 0 C3.7602985 0.58107632 6.53035032 1.65199496 9.8125 3.5625 C10.60269531 4.01753906 11.39289063 4.47257813 12.20703125 4.94140625 C12.79871094 5.29074219 13.39039063 5.64007813 14 6 C10.8035914 7.06546953 8.34252724 7.07427838 5 7 C4.9175 6.401875 4.835 5.80375 4.75 5.1875 C3.79544128 2.4033704 2.42867729 1.56688858 0 0 Z " fill="#070586" transform="translate(159,201)"/>
<path d="M0 0 C7.75 1.875 7.75 1.875 10 3 C10 3.66 10 4.32 10 5 C10.66 5 11.32 5 12 5 C12 5.66 12 6.32 12 7 C7.39104317 5.68315519 3.85859765 3.84801255 0 1 C0 0.67 0 0.34 0 0 Z " fill="#48479C" transform="translate(262,242)"/>
<path d="M0 0 C0.70511719 0.16371094 1.41023437 0.32742188 2.13671875 0.49609375 C5.09658688 1.01699824 7.81061273 1.09866732 10.8125 1.0625 C11.78832031 1.05347656 12.76414063 1.04445313 13.76953125 1.03515625 C14.50558594 1.02355469 15.24164063 1.01195312 16 1 C13.10969381 3.89030619 10.38763545 3.76369832 6.421875 4.11328125 C4 4 4 4 1.375 2.0625 C0.92125 1.381875 0.4675 0.70125 0 0 Z " fill="#4B4891" transform="translate(231,295)"/>
<path d="M0 0 C1.32 0 2.64 0 4 0 C4.53012738 1.28788008 5.0488329 2.58046678 5.5625 3.875 C5.99755859 4.95394531 5.99755859 4.95394531 6.44140625 6.0546875 C7 8 7 8 6 10 C4.99723227 8.52270825 3.99785546 7.04311423 3 5.5625 C2.443125 4.73878906 1.88625 3.91507812 1.3125 3.06640625 C0 1 0 1 0 0 Z " fill="#343390" transform="translate(112,296)"/>
<path d="M0 0 C0.66 0.33 1.32 0.66 2 1 C0.35 2.98 -1.3 4.96 -3 7 C-4.65 6.67 -6.3 6.34 -8 6 C-5.54080489 3.3651481 -3.42227589 1.25483449 0 0 Z " fill="#4B4BA0" transform="translate(164,112)"/>
<path d="M0 0 C1.58409994 0.11487748 3.16728963 0.24234508 4.75 0.375 C6.07257813 0.47941406 6.07257813 0.47941406 7.421875 0.5859375 C9.99066382 0.99850055 11.75841015 1.71160957 14 3 C13.67 3.66 13.34 4.32 13 5 C8.71 4.01 4.42 3.02 0 2 C0 1.34 0 0.68 0 0 Z " fill="#4C4A9A" transform="translate(189,355)"/>
<path d="M0 0 C0.33 0 0.66 0 1 0 C1.4726477 8.19256018 1.4726477 8.19256018 -0.5 11.5625 C-0.995 12.036875 -1.49 12.51125 -2 13 C-2.16682272 8.07872966 -2.24828052 4.49656104 0 0 Z " fill="#29278B" transform="translate(349,267)"/>
<path d="M0 0 C4.97209562 1.76429199 9.43438061 4.3939166 14 7 C13.01 7.33 12.02 7.66 11 8 C9.30712215 7.04504326 7.64142963 6.0409066 6 5 C3.80869466 4.30420546 3.80869466 4.30420546 2 4 C2 3.34 2 2.68 2 2 C1.34 2 0.68 2 0 2 C0 1.34 0 0.68 0 0 Z " fill="#525299" transform="translate(286,201)"/>
<path d="M0 0 C1.65 0 3.3 0 5 0 C5 0.66 5 1.32 5 2 C5.94875 2.28875 6.8975 2.5775 7.875 2.875 C11 4 11 4 13 6 C8.39146203 5.27991594 4.32762591 3.68704061 0 2 C0 1.34 0 0.68 0 0 Z " fill="#0B0B80" transform="translate(269,106)"/>
<path d="M0 0 C2.1875 -0.3125 2.1875 -0.3125 5 0 C7.8125 2.5 7.8125 2.5 10 5 C9.01 5.495 9.01 5.495 8 6 C6.0546875 5.0390625 6.0546875 5.0390625 3.875 3.625 C3.15054687 3.16351563 2.42609375 2.70203125 1.6796875 2.2265625 C1.12539063 1.82179687 0.57109375 1.41703125 0 1 C0 0.67 0 0.34 0 0 Z " fill="#3A3592" transform="translate(306,196)"/>
<path d="M0 0 C2 4 2 4 1.42578125 6.32421875 C1.05839844 7.10410156 0.69101563 7.88398438 0.3125 8.6875 C-0.04199219 9.47511719 -0.39648438 10.26273438 -0.76171875 11.07421875 C-2 13 -2 13 -5 14 C-5 13.01 -5 12.02 -5 11 C-4.34 11 -3.68 11 -3 11 C-2.01 7.37 -1.02 3.74 0 0 Z " fill="#0E0D81" transform="translate(103,183)"/>
<path d="M0 0 C0.33 0.66 0.66 1.32 1 2 C-0.0625 3.5625 -0.0625 3.5625 -2 5 C-5.6875 4.6875 -5.6875 4.6875 -9 4 C-6.3144406 1.3144406 -3.62378672 0.93950026 0 0 Z " fill="#383595" transform="translate(255,307)"/>
<path d="M0 0 C0 0.66 0 1.32 0 2 C-1.60203467 2.36368892 -3.20674203 2.71561952 -4.8125 3.0625 C-5.70582031 3.25972656 -6.59914063 3.45695312 -7.51953125 3.66015625 C-10 4 -10 4 -13 3 C-4.57142857 -0.42857143 -4.57142857 -0.42857143 0 0 Z " fill="#120F80" transform="translate(270,352)"/>
<path d="M0 0 C0.33 0.66 0.66 1.32 1 2 C0.2884375 3.175625 0.2884375 3.175625 -0.4375 4.375 C-2.34098924 7.06372236 -2.34098924 7.06372236 -2 11 C-2.66 11 -3.32 11 -4 11 C-4.35233161 5.62694301 -4.35233161 5.62694301 -4 3 C-2 1 -2 1 0 0 Z " fill="#403E96" transform="translate(154,184)"/>
<path d="M0 0 C3.59391114 1.33488128 6.75490696 2.96022723 10 5 C8 6 8 6 6.0546875 5.44140625 C5.33539063 5.15136719 4.61609375 4.86132812 3.875 4.5625 C3.15054687 4.27503906 2.42609375 3.98757812 1.6796875 3.69140625 C0.84824219 3.34916016 0.84824219 3.34916016 0 3 C0 2.01 0 1.02 0 0 Z " fill="#53539D" transform="translate(340,232)"/>
<path d="M0 0 C2 0 2 0 4 1.625 C6.2637294 4.31317866 7.08211425 6.63441891 8 10 C4.50126729 8.60344703 3.29108169 7.28739516 1.75 3.875 C1.41484375 3.15054688 1.0796875 2.42609375 0.734375 1.6796875 C0.49203125 1.12539062 0.2496875 0.57109375 0 0 Z " fill="#6260A8" transform="translate(297,186)"/>
<path d="M0 0 C2.3125 0.1875 2.3125 0.1875 5 1 C6.75 3.4375 6.75 3.4375 8 6 C8.33 6.66 8.66 7.32 9 8 C5.18284914 6.44486447 2.77292558 4.00400272 0 1 C0 0.67 0 0.34 0 0 Z " fill="#50429A" transform="translate(137,326)"/>
<path d="M0 0 C1.32 0.33 2.64 0.66 4 1 C3.01 1.33 2.02 1.66 1 2 C-0.22969878 5.51190809 -0.22969878 5.51190809 -1 9 C-2.0326802 6.21176345 -2.04509293 5.1322726 -1.0625 2.25 C-0.711875 1.5075 -0.36125 0.765 0 0 Z " fill="#9E9B9B" transform="translate(377,254)"/>
<path d="M0 0 C0.66 0.66 1.32 1.32 2 2 C0.35 3.32 -1.3 4.64 -3 6 C-3 3 -3 3 -1.5 1.3125 C-0.7575 0.6628125 -0.7575 0.6628125 0 0 Z M-4 6 C-4 9 -4 9 -4 9 Z " fill="#B3B1B2" transform="translate(338,333)"/>
<path d="M0 0 C1.65 0.33 3.3 0.66 5 1 C3.35 2.65 1.7 4.3 0 6 C-0.66 5.67 -1.32 5.34 -2 5 C-1.34 3.35 -0.68 1.7 0 0 Z " fill="#3B399E" transform="translate(266,282)"/>
<path d="M0 0 C0.66 0 1.32 0 2 0 C1.65120368 3.25543229 0.97866739 4.01873107 -1.5625 6.25 C-2.366875 6.8275 -3.17125 7.405 -4 8 C-4 6.68 -4 5.36 -4 4 C-3.01 3.67 -2.02 3.34 -1 3 C-0.67 2.01 -0.34 1.02 0 0 Z " fill="#6959A4" transform="translate(281,269)"/>
<path d="M0 0 C2.64 0.66 5.28 1.32 8 2 C8 2.66 8 3.32 8 4 C8.66 4 9.32 4 10 4 C9.67 4.66 9.34 5.32 9 6 C6.03 4.35 3.06 2.7 0 1 C0 0.67 0 0.34 0 0 Z " fill="#403E97" transform="translate(189,200)"/>
<path d="M0 0 C0.99 0 1.98 0 3 0 C3.33 0.99 3.66 1.98 4 3 C5.49985609 4.66710346 5.49985609 4.66710346 7 6 C5.35 6 3.7 6 2 6 C2 5.01 2 4.02 2 3 C1.34 3 0.68 3 0 3 C0 2.01 0 1.02 0 0 Z " fill="#060581" transform="translate(197,201)"/>
<path d="M0 0 C1.98 0 3.96 0 6 0 C5.01 0.495 5.01 0.495 4 1 C4 1.66 4 2.32 4 3 C1.36 3 -1.28 3 -4 3 C-2.68 2.67 -1.36 2.34 0 2 C0 1.34 0 0.68 0 0 Z " fill="#201E88" transform="translate(210,144)"/>
<path d="M0 0 C-0.33 0.99 -0.66 1.98 -1 3 C-3.31 3 -5.62 3 -8 3 C-8 2.34 -8 1.68 -8 1 C-5.23735711 0.40267181 -2.83967231 0 0 0 Z " fill="#030282" transform="translate(195,103)"/>
<path d="" fill="#000000" transform="translate(0,0)"/>
<path d="" fill="#000000" transform="translate(0,0)"/>
<path d="" fill="#000000" transform="translate(0,0)"/>
<path d="" fill="#000000" transform="translate(0,0)"/>
<path d="" fill="#000000" transform="translate(0,0)"/>
<path d="" fill="#000000" transform="translate(0,0)"/>
<path d="" fill="#000000" transform="translate(0,0)"/>
<path d="" fill="#000000" transform="translate(0,0)"/>
<path d="" fill="#000000" transform="translate(0,0)"/>
<path d="" fill="#000000" transform="translate(0,0)"/>
<path d="" fill="#000000" transform="translate(0,0)"/>
<path d="" fill="#000000" transform="translate(0,0)"/>
<path d="" fill="#000000" transform="translate(0,0)"/>
<path d="" fill="#000000" transform="translate(0,0)"/>
<path d="" fill="#000000" transform="translate(0,0)"/>
<path d="" fill="#000000" transform="translate(0,0)"/>
<path d="" fill="#000000" transform="translate(0,0)"/>
<path d="" fill="#000000" transform="translate(0,0)"/>
<path d="" fill="#000000" transform="translate(0,0)"/>
<path d="" fill="#000000" transform="translate(0,0)"/>
<path d="" fill="#000000" transform="translate(0,0)"/>
<path d="" fill="#000000" transform="translate(0,0)"/>
<path d="" fill="#000000" transform="translate(0,0)"/>
</svg>
